<svg width="17" height="22" viewBox="0 0 17 22" fill="none" xmlns="http://www.w3.org/2000/svg">
<path d="M3.6027 14.9848L4.05645 15.3629C4.75483 15.9447 5.56749 16.3736 6.44193 16.6218C7.31637 16.8701 8.23316 16.9321 9.13308 16.804C10.033 16.6759 10.896 16.3605 11.6665 15.8781C12.4369 15.3957 13.0976 14.7571 13.6058 14.0035C14.2697 13.019 14.8278 11.4405 15.2506 9.2164C15.6448 7.14237 15.9145 4.54559 16.0568 1.42063C12.3639 2.19661 9.42259 3.02509 7.22292 3.90256C4.87882 4.83765 3.46005 5.79688 2.82791 6.73364C2.11321 7.79312 1.72658 9.03973 1.71634 10.3177C1.7061 11.5957 2.0727 12.8483 2.77034 13.9191L2.95054 14.1957L2.76698 14.47C1.67325 16.1049 1.06641 18.0484 1.06641 20.071C1.06641 20.2036 1.11908 20.3308 1.21285 20.4246C1.30662 20.5183 1.4338 20.571 1.56641 20.571C1.69902 20.571 1.82619 20.5183 1.91996 20.4246C2.01369 20.3309 2.06636 20.2037 2.06641 20.0712L3.6027 14.9848ZM3.6027 14.9848L3.30472 15.4948M3.6027 14.9848L3.30472 15.4948M3.30472 15.4948C2.49326 16.8833 2.06587 18.4628 2.06641 20.071L3.30472 15.4948ZM4.5813 13.8012L4.21778 14.1808L4.615 14.5249C5.20315 15.0345 5.89276 15.4135 6.63824 15.6368C7.38372 15.8601 8.16811 15.9227 8.93956 15.8204C9.71102 15.7181 10.452 15.4532 11.1135 15.0433C11.7749 14.6334 12.3419 14.0879 12.7769 13.4427C13.3333 12.6181 13.7836 11.3386 14.1397 9.67268C14.4984 7.99487 14.7707 5.87926 14.9452 3.3474L14.9917 2.67232L14.3328 2.82611C11.3463 3.52309 8.95169 4.25774 7.18019 4.9949C6.2945 5.36345 5.55476 5.73665 4.97111 6.11193C4.39298 6.48364 3.93882 6.87579 3.65699 7.29327L3.65698 7.29329C3.11862 8.09085 2.79901 9.01575 2.7301 9.97553C2.66118 10.9353 2.84538 11.8964 3.26427 12.7627L3.56787 13.3906L4.06505 12.9015C4.47494 12.4982 4.92002 12.1285 5.39944 11.7958L5.90715 11.444C6.01616 11.3685 6.1507 11.3394 6.28118 11.3631C6.41166 11.3867 6.52739 11.4613 6.60291 11.5703C6.67843 11.6793 6.70756 11.8138 6.68388 11.9443C6.6602 12.0748 6.58566 12.1905 6.47666 12.266L6.47625 12.2663L5.96989 12.6179C5.96979 12.6179 5.9697 12.618 5.96961 12.6181C5.46855 12.9648 5.00337 13.3605 4.5813 13.8012Z" fill="black" stroke="#E84D88"/>
</svg>
