<svg width="25" height="25" viewBox="0 0 25 25" fill="none" xmlns="http://www.w3.org/2000/svg">
<g clip-path="url(#clip0_44694_2568)">
<path d="M4.42656 2.32986C4.53906 1.90764 4.98767 1.5625 5.42448 1.5625H19.5773C20.0141 1.5625 20.4627 1.90764 20.5745 2.32986L24.1023 15.6028C24.2141 16.025 24.0196 16.5833 23.6696 16.8444L13.137 24.6993C12.787 24.9604 12.2148 24.9604 11.8648 24.6993L1.33142 16.8438C0.981424 16.5826 0.78698 16.0243 0.898785 15.6021L4.42656 2.32986Z" fill="#E95F28"/>
<path d="M22.8682 13.8305C26.1404 12.7423 23.2488 3.63396 19.9766 4.72076C18.7238 5.13743 17.4516 5.91173 16.3474 6.82354C16.8529 5.46659 17.1786 3.98882 17.1786 2.6409C17.1786 -0.880626 7.82308 -0.880626 7.82308 2.6409C7.82308 3.98882 8.14878 5.46729 8.65434 6.82354C7.54947 5.91243 6.27656 5.13812 5.02447 4.72215C1.75225 3.63396 -1.13733 12.7423 2.13281 13.8305C3.38489 14.2465 4.8592 14.3867 6.27586 14.3138C5.08767 15.1069 3.97586 16.1069 3.20156 17.1978C1.17933 20.0471 8.74878 25.6763 10.771 22.8284C11.5446 21.7381 12.13 20.3451 12.5002 18.9437C12.8703 20.3458 13.4557 21.7381 14.2293 22.8284C16.2516 25.6777 23.8203 20.0478 21.7995 17.1978C21.0252 16.1076 19.9127 15.1076 18.7252 14.3138C20.1418 14.3867 21.6154 14.2465 22.8682 13.8305Z" fill="#FFAC33"/>
<path d="M18.2367 17.8952C20.7422 18.7174 22.9255 11.7465 20.4207 10.9243C19.4617 10.6097 18.3339 10.5083 17.2505 10.5681C18.1568 9.95765 19.0047 9.19029 19.5929 8.35418C21.1304 6.17085 15.3262 1.89168 13.788 4.07502C13.1992 4.91113 12.7561 5.9764 12.4769 7.04863C12.1901 5.97849 11.738 4.91668 11.1429 4.08543C9.58805 1.91391 3.81722 6.24029 5.37139 8.41113C5.96652 9.24168 6.82 10.0035 7.73111 10.6056C6.64777 10.5542 5.52069 10.666 4.56444 10.9875C2.06514 11.8299 4.30402 18.782 6.80194 17.941C7.75819 17.6188 8.72972 17.0229 9.57138 16.3229C9.18874 17.3618 8.9443 18.4924 8.94777 19.5222C8.95819 22.2139 16.1124 22.184 16.1033 19.4931C16.0992 18.4625 15.8457 17.334 15.4554 16.2986C16.3019 16.9938 17.2776 17.5806 18.2367 17.8952Z" fill="#F4900C"/>
<path d="M17.0753 12.8729C18.519 12.3931 17.2433 8.37433 15.7996 8.85419C15.2468 9.03822 14.6857 9.37989 14.1982 9.78197C14.4211 9.18336 14.5648 8.53128 14.5648 7.93683C14.5648 6.38336 10.4371 6.38336 10.4371 7.93683C10.4371 8.53128 10.5808 9.18336 10.8037 9.78197C10.3169 9.37989 9.75512 9.03822 9.20304 8.85489C7.75929 8.37503 6.48429 12.3931 7.92734 12.8736C8.48012 13.057 9.13012 13.1195 9.75512 13.0868C9.23082 13.4368 8.74054 13.8778 8.39887 14.3591C7.50651 15.616 10.8461 18.0993 11.7385 16.8431C12.0801 16.3618 12.3378 15.7473 12.501 15.1292C12.6641 15.7479 12.9225 16.3618 13.2635 16.8431C14.1558 18.1 17.4947 15.616 16.603 14.3591C16.2614 13.8778 15.7704 13.4368 15.2468 13.0868C15.8725 13.1181 16.5225 13.0563 17.0753 12.8729Z" fill="#FFCC4D"/>
<path d="M13.7267 13.2069C13.5658 13.3693 13.3743 13.4982 13.1633 13.5864C12.9524 13.6745 12.7261 13.7202 12.4975 13.7206C12.2689 13.7211 12.0424 13.6764 11.8311 13.5891C11.6198 13.5018 11.4278 13.3737 11.2661 13.212C11.1045 13.0503 10.9764 12.8583 10.8891 12.6469C10.8019 12.4356 10.7573 12.2091 10.7578 11.9805C10.7583 11.7519 10.804 11.5256 10.8923 11.3147C10.9805 11.1037 11.1095 10.9123 11.2719 10.7514C11.598 10.4282 12.0388 10.2473 12.498 10.2484C12.9571 10.2495 13.3971 10.4324 13.7217 10.7571C14.0463 11.0818 14.2291 11.5218 14.23 11.981C14.231 12.4401 14.05 12.8809 13.7267 13.2069Z" fill="#EEEEEE"/>
</g>
<defs>
<clipPath id="clip0_44694_2568">
<rect width="25" height="25" fill="white"/>
</clipPath>
</defs>
</svg>
