<svg width="12" height="14" viewBox="0 0 12 14" fill="none" xmlns="http://www.w3.org/2000/svg">
<path d="M5.99891 4.10798C7.59478 2.96425 9.53353 2.40009 11.4939 2.50898V6.00598C11.4939 7.46334 10.915 8.86102 9.88446 9.89153C8.85395 10.922 7.45627 11.501 5.99891 11.501C4.54154 11.501 3.14387 10.922 2.11335 9.89153C1.08284 8.86102 0.503906 7.46334 0.503906 6.00598V2.50998C0.503906 2.50998 7.05791 1.71998 10.0559 9.71398" fill="#991D1D"/>
<path d="M5.99891 4.10798C7.59478 2.96425 9.53353 2.40009 11.4939 2.50898V6.00598C11.4939 7.46334 10.915 8.86102 9.88446 9.89153C8.85395 10.922 7.45627 11.501 5.99891 11.501C4.54154 11.501 3.14387 10.922 2.11335 9.89153C1.08284 8.86102 0.503906 7.46334 0.503906 6.00598V2.50998C0.503906 2.50998 7.05791 1.71998 10.0559 9.71398" stroke="black" stroke-linecap="round" stroke-linejoin="round"/>
<path d="M8.90584 2.76899C8.74333 2.1208 8.36892 1.54548 7.84206 1.1344C7.3152 0.723328 6.6661 0.500061 5.99784 0.500061C5.32959 0.500061 4.68049 0.723328 4.15363 1.1344C3.62677 1.54548 3.25235 2.1208 3.08984 2.76899M5.99784 11.502V13.5Z" fill="#991D1D"/>
<path d="M8.90584 2.76899C8.74333 2.1208 8.36892 1.54548 7.84206 1.1344C7.3152 0.723328 6.6661 0.500061 5.99784 0.500061C5.32959 0.500061 4.68049 0.723328 4.15363 1.1344C3.62677 1.54548 3.25235 2.1208 3.08984 2.76899M5.99784 11.502V13.5" stroke="black" stroke-linecap="round" stroke-linejoin="round"/>
</svg>
