<svg width="25" height="25" viewBox="0 0 25 25" fill="none" xmlns="http://www.w3.org/2000/svg">
<path d="M18.1647 12.1875L17.0709 8.9453C17.0709 8.9453 20.3912 4.14061 19.1412 3.24217C17.8912 2.34373 14.2194 6.95311 14.2194 6.95311H10.7037C10.7037 6.95311 7.03185 2.3828 5.78184 3.24217C4.53184 4.10155 7.85216 8.9453 7.85216 8.9453L6.75841 12.1875C6.75841 12.1875 1.17246 14.1797 1.64121 15.625C2.10997 17.0703 7.85216 15.4687 7.85216 15.4687L10.7037 17.5C10.7037 17.5 10.899 23.3203 12.4615 23.3203C14.024 23.3203 14.2194 17.5 14.2194 17.5L17.0709 15.4687C17.0709 15.4687 22.8131 17.0703 23.2819 15.625C23.7897 14.1797 18.1647 12.1875 18.1647 12.1875Z" fill="#A01A5D"/>
<path d="M16.3281 3.86721C16.3281 7.77346 14.6094 10.9766 12.4609 10.9766C10.3125 10.9766 8.59375 7.81253 8.59375 3.86721C8.59375 -0.0780973 11.4062 2.22659 12.4609 2.22659C13.5156 2.22659 16.3281 -0.0390346 16.3281 3.86721Z" fill="#E84D88"/>
<path d="M5.07642 6.44533C8.90455 7.65627 11.4827 10.2344 10.8186 12.2266C10.1546 14.2188 6.52174 14.8047 2.69361 13.5938C-1.13452 12.3828 1.95142 10.4688 2.26392 9.49221C2.57642 8.55471 1.2483 5.23439 5.07642 6.44533Z" fill="#E84D88"/>
<path d="M4.10111 17.6954C6.44486 14.5313 9.76517 12.9297 11.4839 14.1797C13.2027 15.3907 12.6949 18.9454 10.312 22.1485C7.96829 25.3126 7.03079 21.8751 6.21048 21.2891C5.39017 20.6641 1.7183 20.8594 4.10111 17.6954Z" fill="#E84D88"/>
<path d="M14.7629 22.0704C12.4192 18.9063 11.8723 15.3516 13.5911 14.1016C15.3098 12.8907 18.6301 14.4532 20.9739 17.6172C23.3176 20.7813 19.6848 20.586 18.8645 21.1719C18.0442 21.7969 17.1067 25.2344 14.7629 22.0704Z" fill="#E84D88"/>
<path d="M22.3043 13.5156C18.4762 14.7266 14.8434 14.1016 14.1793 12.1484C13.5543 10.1563 16.1325 7.57813 19.9215 6.36719C23.7496 5.15626 22.4215 8.47657 22.734 9.45313C23.0465 10.3906 26.1325 12.3047 22.3043 13.5156Z" fill="#E84D88"/>
<path d="M12.5 14.1016C13.3198 14.1016 13.9844 13.4545 13.9844 12.6563C13.9844 11.858 13.3198 11.2109 12.5 11.2109C11.6802 11.2109 11.0156 11.858 11.0156 12.6563C11.0156 13.4545 11.6802 14.1016 12.5 14.1016Z" fill="#FFCE31"/>
</svg>
