<svg width="25" height="23" viewBox="0 0 25 23" fill="none" xmlns="http://www.w3.org/2000/svg">
<path d="M23.2518 9.09531C23.0408 8.83984 22.8229 8.57539 22.7725 8.42266C22.7213 8.2707 22.7381 7.93281 22.7537 7.60625C22.7897 6.87773 22.8338 5.9707 22.2983 5.40977C21.7826 4.86953 20.9057 4.80195 19.5826 5.22148C19.1763 5.35072 18.7761 5.49866 18.3834 5.66484C19.0502 4.38242 19.5736 2.97773 18.9588 2.54336C18.4377 2.17461 17.4877 2.7793 16.5729 3.58906C16.5776 3.44922 16.5846 3.31055 16.5846 3.16797C16.5846 1.43906 16.0131 0.5625 14.8858 0.5625C14.3479 0.5625 13.7842 0.770313 13.2861 0.953125C12.9697 1.06992 12.6424 1.19023 12.4733 1.19023C12.3045 1.19023 11.9772 1.06953 11.6608 0.953125C11.1635 0.770313 10.5994 0.5625 10.0615 0.5625C8.93419 0.5625 8.36271 1.43906 8.36271 3.16758C8.36271 3.29336 8.36974 3.41602 8.37286 3.53984C7.47482 2.75469 6.55294 2.18164 6.042 2.54297C5.41232 2.98828 5.97599 4.45039 6.66505 5.75703C6.25738 5.58221 5.84138 5.42747 5.41857 5.29336C4.09552 4.87422 3.21935 4.94102 2.70294 5.48164C2.16739 6.04297 2.21153 6.94922 2.24708 7.67773C2.26271 8.0043 2.2795 8.34219 2.22833 8.49414C2.17794 8.64688 1.95958 8.91133 1.74864 9.16758C1.23185 9.7957 0.587316 10.5773 0.836535 11.4168C1.02599 12.0547 1.69513 12.5477 2.88263 12.9227C2.97677 12.9523 3.07091 12.9734 3.16583 13.0012C2.41271 13.4977 1.89435 14.0277 2.05099 14.498C2.28302 15.191 3.7756 15.1523 5.21466 14.9398C4.80008 15.3625 4.41432 15.8124 4.05997 16.2867C3.33224 17.2613 3.08458 18.0379 3.30255 18.6613C3.59435 19.4973 4.59474 19.7629 5.39825 19.9766C5.72482 20.0637 6.06232 20.1531 6.19825 20.2496C6.33341 20.3449 6.52482 20.6285 6.70997 20.9031C7.17169 21.5867 7.74552 22.4375 8.65529 22.4375C9.31818 22.4375 9.98927 21.9699 10.7068 21.009C10.9192 20.7238 11.12 20.4302 11.3088 20.1289C11.5627 21.1078 11.9408 21.8883 12.5014 21.8883C13.0873 21.8883 13.4729 21.0352 13.7268 19.9957C13.9308 20.328 14.1495 20.6511 14.3822 20.9641C15.1002 21.9258 15.7713 22.3926 16.4342 22.3926C17.3447 22.3926 17.9182 21.5418 18.3791 20.8582C18.5643 20.5844 18.7549 20.3008 18.8897 20.2055C19.0256 20.1094 19.3635 20.0191 19.6901 19.9328C20.4943 19.7188 21.4943 19.4527 21.7858 18.6176C22.0033 17.9934 21.7557 17.2168 21.0287 16.2422C20.6937 15.793 20.3305 15.3656 19.9412 14.9625C21.3315 15.1547 22.7279 15.1668 22.9506 14.4984C23.1135 14.0121 22.5529 13.4609 21.7576 12.95C21.8783 12.916 21.999 12.8879 22.119 12.85C23.3065 12.4746 23.9756 11.982 24.1654 11.3441C24.4135 10.5047 23.7693 9.72305 23.2518 9.09531ZM10.0619 1.3168C10.4643 1.3168 10.9611 1.5 11.3994 1.66133C11.8127 1.81367 12.1701 1.94531 12.4736 1.94531C12.7776 1.94531 13.135 1.81367 13.5483 1.66133C13.9861 1.5 14.483 1.3168 14.8858 1.3168C15.1678 1.3168 15.8283 1.3168 15.8283 3.16758C15.8283 6.67852 14.292 9.64492 12.4736 9.64492C10.6557 9.64492 9.11896 6.67852 9.11896 3.16758C9.11896 1.3168 9.77989 1.3168 10.0619 1.3168ZM3.11193 12.2039C2.20802 11.9184 1.67208 11.5719 1.56271 11.2027C1.42755 10.7473 1.92989 10.1371 2.3338 9.64727C2.61193 9.30977 2.85177 9.01836 2.9463 8.7332C3.042 8.44766 3.02403 8.07383 3.00294 7.6418C2.97443 7.05703 2.93888 6.32969 3.25138 6.00273C3.39591 5.85078 3.62403 5.77695 3.94825 5.77695C4.27794 5.77695 4.69591 5.85625 5.19083 6.01289C7.60841 6.77734 9.56349 8.14063 10.2936 9.56992C10.5787 10.1285 10.6451 10.6457 10.4908 11.1074C10.1455 12.1418 8.67833 12.7848 6.66271 12.7848C5.54044 12.7844 4.3131 12.5836 3.11193 12.2039ZM10.1006 20.5578C9.55138 21.2941 9.05099 21.6832 8.65529 21.6832C8.14825 21.6832 7.69903 21.0176 7.33849 20.4824C7.09474 20.1215 6.88458 19.8094 6.63653 19.6344C6.38966 19.4598 6.0213 19.3617 5.59396 19.2484C4.9631 19.0805 4.17794 18.8719 4.01778 18.4141C3.89239 18.0543 4.117 17.4754 4.66739 16.7379C6.29982 14.55 8.5088 13.0805 10.1635 13.0805C10.6123 13.0805 10.9963 13.1914 11.3053 13.4094C11.7213 13.7043 11.9838 14.1777 12.085 14.8168C12.3342 16.3848 11.5733 18.5848 10.1006 20.5578ZM12.501 13.15C12.3021 13.1502 12.1051 13.1112 11.9212 13.0353C11.7374 12.9593 11.5703 12.8479 11.4295 12.7074C11.2887 12.5669 11.177 12.4 11.1007 12.2163C11.0245 12.0326 10.9851 11.8356 10.985 11.6367C10.9852 11.4378 11.0246 11.2409 11.1009 11.0573C11.1771 10.8736 11.2889 10.7068 11.4297 10.5663C11.5704 10.4258 11.7375 10.3144 11.9213 10.2385C12.1051 10.1626 12.3021 10.1236 12.501 10.1238C12.6999 10.1236 12.8969 10.1625 13.0808 10.2384C13.2646 10.3143 13.4318 10.4257 13.5726 10.5662C13.7134 10.7066 13.8252 10.8735 13.9015 11.0572C13.9778 11.2409 14.0172 11.4378 14.0174 11.6367C14.0172 11.8357 13.9778 12.0326 13.9015 12.2163C13.8252 12.4 13.7134 12.5669 13.5726 12.7074C13.4318 12.8479 13.2647 12.9593 13.0808 13.0353C12.8969 13.1112 12.6999 13.1502 12.501 13.15ZM20.4217 16.693C20.9721 17.4305 21.1963 18.0102 21.0713 18.3691C20.9115 18.827 20.126 19.0355 19.4947 19.2039C19.067 19.3172 18.6986 19.4156 18.4514 19.5906C18.2041 19.7652 17.9943 20.0766 17.7514 20.4371C17.3901 20.9723 16.9416 21.6383 16.4338 21.6383C16.0377 21.6383 15.5377 21.2492 14.9881 20.5129C13.5151 18.5387 12.7545 16.3383 13.0037 14.7711C13.1053 14.1324 13.3678 13.6594 13.7838 13.3648C14.0928 13.1465 14.4764 13.0359 14.9256 13.0359C16.5799 13.0363 18.7893 14.5059 20.4217 16.693ZM23.4397 11.1301C23.3303 11.4988 22.7943 11.8453 21.8897 12.1313C20.6881 12.5113 19.46 12.7125 18.3369 12.7125C16.3221 12.7125 14.8561 12.0695 14.5108 11.0352C14.3561 10.5734 14.4229 10.0559 14.7084 9.49727C15.4381 8.06797 17.3932 6.70508 19.8111 5.94062C20.3061 5.78398 20.724 5.70469 21.0537 5.70469C21.3779 5.70469 21.6061 5.77852 21.751 5.93008C22.0631 6.25742 22.0276 6.98516 21.9994 7.56953C21.9776 8.00195 21.9596 8.37539 22.0557 8.66172C22.1502 8.94648 22.3901 9.23789 22.6678 9.57422C23.0725 10.0645 23.5748 10.6746 23.4397 11.1301Z" fill="#FE6111"/>
</svg>
