<svg width="17" height="25" viewBox="0 0 17 25" fill="none" xmlns="http://www.w3.org/2000/svg">
<path d="M11.667 13.4615C12.6925 12.9314 13.6779 12.2446 14.5031 11.6009L14.4913 11.6602L15.4728 10.808C15.2881 11.2659 15.0443 11.7748 14.7269 12.282C13.7426 13.855 12.072 15.3898 9.23281 15.3898H8.75962L8.76006 15.382H8.23125C6.42803 15.382 5.12974 14.9689 4.18949 14.3782C3.24844 13.787 2.63513 12.9985 2.23344 12.1999C1.93178 11.6002 1.7508 10.9971 1.64285 10.4751C1.75474 10.5934 1.87431 10.7171 2.00092 10.8447L3.0077 11.8594L2.99958 11.7848L3.05727 11.8348C3.30323 12.0481 3.55525 12.2542 3.81301 12.453L4.82837 13.236L4.8146 13.1559L4.89409 13.2053C5.97142 13.8741 7.20578 14.3922 8.46484 14.3922C9.52085 14.3922 10.6361 13.9944 11.667 13.4615ZM9.17119 23.7188H8.29217L8.41757 21.4874L8.46825 20.5856L7.67711 21.0214C6.91662 21.4404 5.51904 21.9355 3.92672 21.1219L3.92666 21.1219C3.5532 20.9311 3.16221 20.5836 2.77705 20.1336C2.3961 19.6885 2.0436 19.1702 1.74089 18.6704C1.45462 18.1979 1.21746 17.7495 1.04712 17.4083C1.04951 17.4081 1.0519 17.4079 1.0543 17.4076C1.48268 17.3654 2.07153 17.3188 2.7148 17.3008C3.35956 17.2827 4.04987 17.2936 4.68373 17.3638C5.3261 17.4349 5.87017 17.5629 6.2472 17.7554C6.95753 18.1184 7.3855 18.551 7.65251 18.9675L8.48621 20.2679L8.57265 18.7256L8.73047 15.91L8.73181 15.8861L8.73361 15.918L8.83908 17.7879L8.85943 18.1489L9.20858 18.2426L9.86313 18.4185L9.28783 18.5636L8.88785 18.6646L8.91094 19.0764L9.17119 23.7188Z" fill="black" stroke="#991D1D"/>
</svg>
