<svg width="15" height="22" viewBox="0 0 15 22" fill="none" xmlns="http://www.w3.org/2000/svg">
<path d="M10.7229 1.72848V1.18957V0.53143H10.0142C8.80401 0.53143 7.80076 1.17582 7.35366 2.05044L6.89454 2.9486L6.45776 2.03936C6.24361 1.59355 5.88242 1.20433 5.41006 0.927092C4.93739 0.64966 4.37846 0.499441 3.80323 0.500002L3.80274 0.500002L3.08516 0.500002V1.17857V1.67857H2.58516H1.86873C0.833018 1.67857 0.409317 2.56973 0.739955 3.19461C1.08001 3.83525 1.38231 4.60256 1.38231 5.5C1.38231 6.26939 1.17481 6.81508 0.95555 7.38827L0.949123 7.40543L0.948035 7.40834L0.948026 7.40834C0.7291 7.9823 0.5 8.58731 0.5 9.42857C0.5 10.4288 0.721468 11.4994 1.70206 12.3188C2.57825 13.05 3.99416 13.5277 6.19827 13.6253L6.67615 13.6464V14.1248V18.04V18.3657L6.37827 18.4973L5.64413 18.8218L6.37827 19.1462L6.67615 19.2779V19.6036V21.5H9.58803C12.1552 21.5 14.185 19.8096 14.4718 17.7864L11.6461 17.7935C11.6454 17.7936 11.6448 17.7936 11.6442 17.7936C10.9911 17.8002 10.3506 17.9424 9.7741 18.2067C9.19714 18.4712 8.70285 18.8493 8.3273 19.3071L7.44076 20.3876V18.9899V15.7143V15.3856L7.74248 15.2553L8.46043 14.9451L7.73738 14.6232L7.44076 14.4911V14.1664V14.124V13.6455L7.91882 13.6245C10.1238 13.5276 11.5395 13.05 12.4146 12.3189C13.3954 11.4995 13.6169 10.4296 13.6169 9.42857C13.6169 8.35193 13.3592 7.72214 13.1233 7.14768L10.7229 1.72848ZM10.7229 1.72848L11.2603 1.68817M10.7229 1.72848L11.2603 1.68817M7.94076 18.9899L7.55421 18.6728C7.67435 18.5264 7.80348 18.387 7.94076 18.2553V18.9899ZM7.94076 18.9899H8.44076V18.4754C8.25907 18.6339 8.09175 18.8059 7.94076 18.9899ZM11.2603 1.68817C11.5308 1.66788 11.7925 1.67142 12.078 1.67528C12.1977 1.6769 12.3216 1.67857 12.452 1.67857C12.9115 1.67857 13.2766 1.88379 13.4713 2.14818C13.6565 2.39972 13.704 2.71983 13.5153 3.05792L13.5151 3.05831M11.2603 1.68817L13.5151 3.05831M13.5151 3.05831C13.1375 3.73641 12.7346 4.54405 12.7346 5.5C12.7346 6.19985 12.9175 6.64711 13.1233 7.14758L13.5151 3.05831ZM1.44743 2.98238L1.44753 2.98233C1.43979 2.96691 1.43264 2.95104 1.42616 2.93474L1.1539 2.25H1.89078C1.95738 2.25 2.02801 2.24913 2.10169 2.24822C2.38296 2.24474 2.7086 2.24071 3.02353 2.28267L3.02524 2.2829C3.37151 2.33025 3.71174 2.40977 4.04042 2.52037C4.85203 2.79231 5.88794 3.33981 6.72464 4.45785C6.72466 4.45788 6.72467 4.4579 6.72469 4.45793L7.05845 4.90376L7.39221 4.45793C7.39223 4.4579 7.39225 4.45788 7.39227 4.45785C8.22899 3.33978 9.26413 2.79217 10.0779 2.52018L1.44743 2.98238ZM1.44743 2.98238L1.45241 2.99179M1.44743 2.98238L1.45241 2.99179M1.45241 2.99179C1.81233 3.67168 2.14692 4.51033 2.14692 5.5C2.14692 6.34127 1.91782 6.94628 1.69889 7.52024L1.69888 7.52023M1.45241 2.99179L1.69888 7.52023M11.4753 2.24985V2.25H12.2905H13.1338L12.7292 2.98986C12.3621 3.66141 11.97 4.5052 11.97 5.5C11.97 6.27711 12.1773 6.78738 12.3851 7.29314L12.3875 7.29894L12.3874 7.29896L12.3927 7.31232L12.4091 7.35348C12.631 7.89423 12.8523 8.45874 12.8523 9.42857C12.8523 10.394 12.631 11.2869 11.8487 11.9401C11.0712 12.5897 9.65395 13.0714 7.05845 13.0714C4.46295 13.0714 3.04573 12.5897 2.26823 11.9401L11.4753 2.24985ZM11.4753 2.24985L11.4631 2.25015M11.4753 2.24985L11.4631 2.25015M11.4631 2.25015C10.973 2.26204 10.4923 2.38159 10.078 2.52014L11.4631 2.25015ZM1.69888 7.52023L1.6978 7.52314M1.69888 7.52023L1.6978 7.52314M1.6978 7.52314L1.69136 7.54034C1.4721 8.11351 1.26461 8.6592 1.26461 9.42857C1.26461 10.394 1.48587 11.2868 2.26809 11.94L1.6978 7.52314Z" fill="black" stroke="#991D1D"/>
</svg>
