<svg width="25" height="25" viewBox="0 0 25 25" fill="none" xmlns="http://www.w3.org/2000/svg">
<g clip-path="url(#clip0_44694_2559)">
<path d="M18.2715 3.82617L6.73438 4.28906L3.57812 15.2363L12.4199 22.9824L22.1875 15.3203L18.2715 3.82617Z" fill="#C54C0F"/>
<path d="M17.4463 3.082C17.2744 3.27341 16.9111 5.74021 17.1318 5.91794C17.3525 6.09567 19.9209 5.24802 20.0537 5.00388C20.1865 4.76169 20.1201 2.52927 19.8994 2.28708C19.6768 2.04294 17.6455 2.8613 17.4463 3.082ZM5.13965 2.26364C4.84473 2.49021 4.83106 5.02536 5.00684 5.17966C5.18262 5.33396 7.45997 6.30661 7.792 5.97653C8.12403 5.64646 7.81348 3.16989 7.65919 2.99411C7.50489 2.81638 5.417 2.05271 5.13965 2.26364ZM0.616217 16.4472C0.735358 16.6992 2.79395 17.1191 3.1963 16.955C3.792 16.7129 5.05958 14.9765 4.99317 14.7343C4.92676 14.4922 2.24708 14.039 2.02637 14.1933C1.80567 14.3476 0.446295 16.0879 0.616217 16.4472ZM12.5635 20.2539C12.3428 20.2363 11.126 22.4179 11.126 22.75C11.126 23.082 12.4092 24.6386 12.6065 24.6523C12.8369 24.6679 14.1943 23.0136 14.1299 22.75C14.0615 22.4843 12.8506 20.2754 12.5635 20.2539ZM20.0752 14.8359C19.9971 15.0703 21.4014 16.9121 21.71 16.9785C22.0186 17.0449 24.294 16.6465 24.4053 16.1836C24.5166 15.7207 22.9033 14.0625 22.6377 13.9297C22.3721 13.7968 20.1846 14.5039 20.0752 14.8359Z" fill="#A62714"/>
<path d="M11.4395 11.2442L14.2637 10.8145C14.2637 10.8145 14.5254 8.68752 15.4024 7.53909C16.2793 6.39065 17.6094 5.48245 17.6094 3.83401C17.6094 2.18557 16.5195 0.869164 15.332 0.822289C14.1445 0.775414 13.3848 1.46682 12.4121 1.41995C11.4395 1.37307 10.5137 0.845727 9.23243 1.03713C7.95118 1.22854 6.85938 3.06838 7.42774 4.62307C7.99806 6.17776 9.52931 7.00784 10.0156 8.0176C10.3008 8.6094 10.8945 11.1739 10.8945 11.1739L11.4395 11.2442Z" fill="#FE6111"/>
<path d="M13.7094 10.1933C13.7094 10.1933 15.6332 9.58396 16.5473 7.73044C17.4614 5.87693 17.9321 5.05662 19.2914 4.77537C20.6508 4.49412 21.7778 5.12693 22.4106 5.92576C23.0434 6.72263 22.7153 8.88083 22.8559 9.35154C22.9965 9.82224 24.3578 11.0176 24.2407 12.1426C24.1235 13.2676 22.9262 14.8164 21.4028 14.7461C19.8774 14.6758 18.9633 13.834 17.9555 13.5527C16.9477 13.2715 15.2914 13.4902 15.2914 13.4902L13.0532 11.039L13.7094 10.1933ZM11.2465 10.334C11.2465 10.334 9.47894 8.99997 8.90668 8.41208C8.10394 7.58787 7.53168 5.05076 5.28949 4.68161C3.4848 4.38474 2.49847 5.57224 2.24066 6.67576C1.98285 7.77927 2.19379 8.55271 2.10004 8.90427C2.00629 9.25583 0.926207 10.7109 0.762144 11.6484C0.598082 12.5859 1.04339 14.4629 2.75628 14.7441C4.46918 15.0254 5.19574 14.2285 5.71136 13.9238C6.22699 13.6191 7.16644 13.1504 7.93988 13.2207C8.71332 13.291 9.84027 13.1738 9.84027 13.1738L11.2465 10.334ZM9.34613 13.5488C9.34613 13.5488 7.94574 14.2558 7.08636 14.5664C6.09222 14.9258 4.56097 14.6054 3.43402 16.0351C2.30707 17.4648 2.33246 19.0605 3.29339 19.9765C4.25433 20.8926 5.42816 20.75 5.99066 21.291C6.55316 21.8301 7.49261 23.4726 8.64105 23.6836C9.78949 23.8945 11.5727 23.4023 11.9243 21.7129C12.2758 20.0234 11.6664 18.5468 11.9711 17.5136C12.2758 16.4824 13.1118 15.3906 13.1118 15.3906L9.34613 13.5488Z" fill="#FE6111"/>
<path d="M15.3359 12.916L12.1875 15.8477C12.1875 15.8477 12.9141 17.0684 13.0547 17.9121C13.1953 18.7559 12.4922 21.9238 13.875 23.0488C15.2598 24.1738 16.8496 23.8457 17.6699 22.7422C18.4902 21.6406 18.877 21.1738 19.3223 20.8223C19.7676 20.4707 22.0625 19.5566 22.25 18.3828C22.4375 17.209 22.1543 16.6211 21.0293 15.752C19.9043 14.8848 18.4961 15.1191 17.4863 14.6973C16.8242 14.4199 15.3359 12.916 15.3359 12.916Z" fill="#FE6111"/>
<path d="M12.9821 10.5683C12.9821 10.5683 14.5524 8.22459 14.5778 6.6738C14.6012 5.17185 13.6403 4.30466 12.5368 4.35154C11.2458 4.40623 10.4958 5.52537 10.6833 6.95505C10.8708 8.38474 12.2262 10.7363 12.2262 10.7363L12.9821 10.5683ZM13.8493 11.4609C13.8493 11.4609 15.7731 9.51365 17.0622 8.8574C18.3532 8.20115 19.6188 8.64646 20.0876 9.93552C20.5563 11.2246 19.4079 12.4219 18.2106 12.5625C17.0133 12.7031 14.1286 12.6562 14.1286 12.6562L13.8493 11.4609ZM10.4958 11.3203C10.4958 11.3203 9.18132 9.4199 7.75163 8.64646C6.32194 7.87302 4.84343 8.34177 4.56218 9.53709C4.28093 10.7344 4.88444 11.959 6.62272 12.2617C8.23991 12.5429 10.402 11.7187 10.402 11.7187L10.4958 11.3203ZM11.5876 13.5371C11.5876 13.5371 9.43913 14.2051 8.85319 14.5332C8.26725 14.8613 6.96452 15.6289 6.91764 17.0605C6.87077 18.4922 7.78483 19.1035 9.07389 18.9629C10.3649 18.8222 11.1051 17.2539 11.2458 16.4316C11.3864 15.6133 11.5876 13.5371 11.5876 13.5371ZM13.029 13.8301C13.029 13.8301 13.0368 16.25 13.5837 17.4531C14.1716 18.748 15.7282 19.5566 16.7809 18.8027C17.7653 18.0996 17.695 16.4804 16.6403 15.3301C15.5856 14.1797 13.404 13.5 13.404 13.5L13.029 13.8301Z" fill="#FFA624"/>
<path d="M12.5243 10.3789C12.5243 10.3789 12.372 9.53123 12.8759 8.96483C13.4735 8.291 14.3016 8.39451 14.9012 8.79295C15.4989 9.18944 15.7997 10.0879 15.1825 10.8457C14.661 11.4883 13.911 11.4629 13.911 11.4629L12.5243 10.3789ZM13.9872 11.9023C13.9872 11.9023 14.4247 11.4824 15.1981 11.582C15.9481 11.6797 16.6317 12.4199 16.4091 13.2969C16.1727 14.2226 15.5673 14.709 14.5419 14.4062C13.5419 14.1113 13.4481 13.2461 13.4481 13.2461L13.9872 11.9023ZM11.2977 13.7597C11.2977 13.7597 10.6259 14.3476 10.7762 15.3242C10.9091 16.1777 11.4481 16.5683 12.3231 16.6191C13.1981 16.6699 13.87 15.9297 13.8036 15.0547C13.7372 14.1797 12.7606 13.3555 12.7606 13.3555L11.2977 13.7597ZM10.5223 11.8515C10.5223 11.8515 9.5282 11.3594 8.8407 11.7676C8.13367 12.1875 7.9657 13.1465 8.20203 13.668C8.43836 14.1894 8.87976 14.7012 9.7489 14.5586C10.6747 14.4082 11.1102 13.4316 11.1102 13.4316L10.5223 11.8515ZM12.1376 10.5058C12.1376 10.5058 12.3387 9.6992 11.6845 8.97459C11.0282 8.25194 10.0028 8.40233 9.51453 8.95701C9.02625 9.5117 8.82508 10.4199 9.48133 11.0586C10.0692 11.6308 11.079 11.4785 11.079 11.4785L12.1376 10.5058Z" fill="#FFFEFF"/>
<path d="M10.8596 10.7422C10.0822 11.4766 9.8498 12.9121 10.7424 13.752C11.633 14.5938 13.0588 14.5117 13.7482 13.8887C14.4377 13.2656 14.6955 12.0879 14.0217 11.0449C13.3498 10.002 11.7678 9.88479 10.8596 10.7422Z" fill="#FCC318"/>
</g>
<defs>
<clipPath id="clip0_44694_2559">
<rect width="25" height="25" fill="white"/>
</clipPath>
</defs>
</svg>
