<svg width="25" height="25" viewBox="0 0 25 25" fill="none" xmlns="http://www.w3.org/2000/svg">
<path d="M17.2312 9.96875C15.2908 10.5975 13.6222 11.868 12.5 13.5714C14.4094 14.2888 16.5059 14.3363 18.4458 13.7061C20.3857 13.0758 22.0539 11.8052 23.1771 10.1026C21.268 9.38364 19.171 9.33606 17.2312 9.96771" fill="#991D1D"/>
<path d="M17.2312 9.96875C15.2908 10.5975 13.6222 11.868 12.5 13.5714C14.4094 14.2888 16.5059 14.3363 18.4458 13.7061C20.3857 13.0758 22.0539 11.8052 23.1771 10.1026C21.268 9.38364 19.171 9.33606 17.2312 9.96771" stroke="black" stroke-linecap="round" stroke-linejoin="round"/>
<path d="M17.391 16.9584C16.1931 15.3069 14.4686 14.1126 12.5014 13.5719C12.4091 15.6096 13.0118 17.6183 14.2108 19.2686C15.4098 20.9188 17.1338 22.1128 19.1004 22.6547C19.194 20.6169 18.5912 18.6079 17.391 16.9584Z" fill="#991D1D" stroke="black" stroke-linecap="round" stroke-linejoin="round"/>
<path d="M10.7894 19.2683C11.9897 17.6187 12.5925 15.6097 12.4988 13.5719C10.5323 14.1138 8.80821 15.3078 7.60924 16.9581C6.41027 18.6083 5.80754 20.617 5.89985 22.6547C7.86703 22.114 9.5915 20.9197 10.7894 19.2683Z" fill="#991D1D" stroke="black" stroke-linecap="round" stroke-linejoin="round"/>
<path d="M6.55547 13.7068C8.49521 14.3384 10.5922 14.2908 12.5013 13.5719C11.3782 11.8692 9.7099 10.5986 7.76998 9.96841C5.83007 9.33818 3.7336 9.38567 1.82422 10.1031C2.94624 11.8068 4.61487 13.0778 6.55547 13.7068Z" fill="#991D1D" stroke="black" stroke-linecap="round" stroke-linejoin="round"/>
<path d="M10.5352 7.95832C10.5335 9.99857 11.2265 11.9786 12.5003 13.5724C13.7726 11.9781 14.4656 9.99886 14.4656 7.95911C14.4656 5.91935 13.7726 3.94011 12.5003 2.34583C11.2267 3.93952 10.5336 5.91931 10.5352 7.95937" fill="#991D1D"/>
<path d="M10.5352 7.95832C10.5335 9.99857 11.2265 11.9786 12.5003 13.5724C13.7726 11.9781 14.4656 9.99886 14.4656 7.95911C14.4656 5.91935 13.7726 3.94011 12.5003 2.34583C11.2267 3.93952 10.5336 5.91931 10.5352 7.95937" stroke="black" stroke-linecap="round" stroke-linejoin="round"/>
</svg>
