<svg width="23" height="22" viewBox="0 0 23 22" fill="none" xmlns="http://www.w3.org/2000/svg">
<path d="M12.6847 9.17803L12.7973 9.52271H13.1599C14.3646 9.52271 14.8634 11.0598 13.8897 11.7665L13.595 11.9804L13.7081 12.3265C14.0803 13.4652 12.7741 14.4207 11.7973 13.7118L11.5037 13.4987L11.21 13.7118C10.2332 14.4207 8.92709 13.4652 9.29925 12.3265L9.41237 11.9804L9.11766 11.7665C8.14395 11.0598 8.64275 9.52271 9.84742 9.52271H10.21L10.3227 9.17803C10.6959 8.03603 12.3114 8.03603 12.6847 9.17803ZM11.5037 12.9133C11.974 12.9133 12.4251 12.7265 12.7577 12.3939C13.0903 12.0613 13.2771 11.6102 13.2771 11.1399C13.2771 10.6695 13.0903 10.2185 12.7577 9.88588C12.4251 9.5533 11.974 9.36646 11.5037 9.36646C11.0333 9.36646 10.5822 9.5533 10.2497 9.88588C9.91708 10.2185 9.73024 10.6695 9.73024 11.1399C9.73024 11.6102 9.91708 12.0613 10.2497 12.3939C10.5822 12.7265 11.0333 12.9133 11.5037 12.9133Z" fill="black" stroke="#E84D88"/>
<path d="M20.3001 13.719C20.8251 13.4976 21.6287 13.0621 21.9867 12.3664C22.9835 10.4407 22.1663 8.893 20.8867 8.13987C21.4499 6.768 21.171 5.03753 19.2132 4.10081C18.5031 3.76336 17.6013 3.89997 17.0502 4.03966L20.3001 13.719ZM20.3001 13.719C20.2811 13.6932 20.2641 13.6707 20.2497 13.6518C20.2331 13.6302 20.2197 13.6132 20.2101 13.601L20.1984 13.5865L20.1947 13.582L20.1935 13.5805L20.193 13.5799L20.1928 13.5796C20.1927 13.5795 20.1926 13.5794 19.807 13.8977M20.3001 13.719L16.7328 4.6596L16.7334 4.65939L16.7425 4.65592C16.7514 4.65259 16.7657 4.64732 16.785 4.64051C16.8236 4.62688 16.8818 4.60719 16.9557 4.58475C17.1043 4.53966 17.3128 4.48455 17.551 4.44447C18.0456 4.36128 18.5869 4.357 18.9981 4.55218M19.807 13.8977L19.6727 13.4161L19.6733 13.4159L19.6827 13.4131C19.6919 13.4104 19.7066 13.4059 19.7262 13.3997C19.7654 13.3872 19.8239 13.3677 19.8967 13.3409C20.0429 13.287 20.243 13.2049 20.4576 13.093C20.9036 12.8604 21.3362 12.5378 21.5421 12.1377L21.5426 12.1366C21.9869 11.2783 22.0079 10.5494 21.8158 9.97096C21.6206 9.38289 21.1871 8.89686 20.6331 8.57079L20.2595 8.35094L20.4241 7.94996C20.6681 7.35573 20.7207 6.70555 20.5217 6.11743C20.3261 5.53919 19.8701 4.96956 18.9981 4.55218M19.807 13.8977C19.4213 14.2159 19.4213 14.2158 19.4212 14.2158M19.807 13.8977C19.6727 13.4161 19.6726 13.4161 19.6724 13.4161L19.6722 13.4162L19.672 13.4163L19.6718 13.4163L18.9317 13.6227L19.4208 14.2153L19.4209 14.2154L19.4211 14.2156L19.4212 14.2158M19.807 13.8977C19.9413 14.3793 19.9414 14.3793 19.9415 14.3792L19.9418 14.3792L19.9426 14.3789L19.9445 14.3784L19.95 14.3768L19.968 14.3716C19.9829 14.3671 20.0037 14.3608 20.0296 14.3525C20.0522 14.3453 20.0789 14.3366 20.109 14.3264M19.807 13.8977L20.109 14.3264M18.9981 4.55218C18.9983 4.55226 18.9985 4.55234 18.9986 4.55242L19.2131 4.1011L18.9974 4.55184C18.9977 4.55196 18.9979 4.55207 18.9981 4.55218ZM4.81112 8.9996C4.40155 8.53417 4.13898 7.91162 4.13998 7.26898C4.14126 6.43827 4.58322 5.63256 5.56689 5.1384L5.56774 5.13797C5.91068 4.9665 6.28551 4.93085 6.60289 4.94426L6.14157 4.77297L6.14144 4.77293L6.14116 4.77282L6.14097 4.77275L6.14075 4.77267L6.14017 4.77247L6.13094 4.76918C6.12198 4.76603 6.10752 4.76104 6.08807 4.75461C6.04911 4.74175 5.99038 4.72323 5.91582 4.70228C5.766 4.66017 5.55593 4.60925 5.31625 4.57401C4.81869 4.50084 4.27539 4.50765 3.86651 4.71209L3.86644 4.71212C3.00225 5.14404 2.55723 5.72112 2.37306 6.30225C2.18577 6.89323 2.25148 7.54241 2.50903 8.13297L2.68184 8.52923L2.3147 8.75747C1.76755 9.09762 1.34517 9.59291 1.16276 10.1839C0.983351 10.7652 1.01956 11.4913 1.48053 12.3384L1.48127 12.3397C1.69634 12.7379 2.13608 13.053 2.58649 13.2773C2.80324 13.3852 3.00488 13.4635 3.15209 13.5146C3.22535 13.54 3.28423 13.5584 3.32364 13.5701C3.34332 13.576 3.35807 13.5802 3.36726 13.5827L3.37675 13.5853L3.37736 13.5855L3.37759 13.5855L3.37779 13.5856L3.37807 13.5856L3.3782 13.5857L4.12173 13.7778L3.6446 14.3795L3.64452 14.3796L3.64434 14.3799L3.64422 14.38L3.64407 14.3802L3.64368 14.3807L3.63767 14.3885C3.63188 14.3961 3.62263 14.4083 3.61047 14.4248C3.58612 14.458 3.55026 14.5081 3.50716 14.5726C3.42055 14.7021 3.30687 14.8861 3.19888 15.103C2.97464 15.5533 2.81278 16.0702 2.87952 16.5185C3.02556 17.4766 3.43827 18.0787 3.93484 18.4333C4.43993 18.7939 5.07839 18.9315 5.72094 18.8688L6.15209 18.8267L6.25512 19.2475C6.40815 19.8725 6.74766 20.4268 7.25314 20.7829C7.75043 21.1332 8.45319 21.3238 9.40363 21.1482L9.40446 21.148C9.84895 21.0667 10.2843 20.7461 10.6368 20.3872C10.8064 20.2145 10.9432 20.047 11.0373 19.9228C11.0841 19.861 11.1198 19.8107 11.1432 19.7769C11.1548 19.76 11.1634 19.7472 11.1686 19.7393L11.174 19.731L11.1744 19.7305L11.1745 19.7303L11.1746 19.7301L11.1748 19.7299L11.1749 19.7298L11.5884 19.081L12.0126 19.7228L12.0127 19.7229L12.0129 19.7231L12.013 19.7233L12.0131 19.7235L12.0135 19.724L12.019 19.7321C12.0244 19.74 12.0331 19.7525 12.045 19.7692C12.0689 19.8026 12.1054 19.8522 12.1533 19.9132C12.2495 20.0356 12.389 20.2006 12.5616 20.3701C12.9202 20.7222 13.3614 21.0346 13.809 21.1073L13.8107 21.1075C14.7653 21.266 15.4649 21.0602 15.9554 20.6979C16.4541 20.3294 16.782 19.765 16.9201 19.1351L17.0128 18.7123L17.4445 18.7435C18.0871 18.7899 18.7201 18.6373 19.2154 18.2665C19.7025 17.9018 20.0999 17.294 20.2252 16.3407C20.2833 15.8883 20.1115 15.3739 19.8793 14.9287C19.7674 14.7141 19.6504 14.5326 19.5615 14.4051C19.5173 14.3416 19.4806 14.2923 19.4557 14.2597C19.4432 14.2435 19.4338 14.2315 19.4278 14.2241L19.4217 14.2164L19.4213 14.2159L19.4212 14.2158M4.81112 8.9996L19.4212 14.2158M4.81112 8.9996C4.21038 9.14845 3.63899 9.50957 3.27235 10.0372C2.79853 10.719 2.69997 11.6319 3.22748 12.5982L3.2278 12.5988C3.48156 13.0622 3.93326 13.3481 4.25838 13.5096C4.26719 13.5139 4.27596 13.5182 4.28469 13.5225C4.28011 13.5315 4.27554 13.5407 4.27098 13.5499C4.10959 13.8759 3.92275 14.3773 3.99981 14.9003L3.99997 14.9013C4.16313 15.9922 4.79205 16.6625 5.5823 16.9208C6.19238 17.1202 6.86478 17.0632 7.43355 16.8196C7.39181 17.4334 7.5588 18.0831 7.94487 18.5916C8.44666 19.2526 9.28399 19.6287 10.3658 19.4286C10.8866 19.334 11.299 18.9921 11.5529 18.7329C11.5597 18.7259 11.5665 18.7189 11.5731 18.712C11.5797 18.7185 11.5862 18.725 11.5929 18.7315C11.8528 18.986 12.2717 19.3183 12.7942 19.4064L12.7947 19.4064C13.8816 19.5884 14.7128 19.197 15.2023 18.5251C15.5814 18.0047 15.7348 17.345 15.6776 16.7267C16.2534 16.9656 16.9327 17.0112 17.5436 16.7986C18.3285 16.5254 18.9471 15.8442 19.0917 14.7524L19.0921 14.7494C19.1582 14.2259 18.9611 13.7294 18.7932 13.4076C18.7887 13.399 18.7842 13.3904 18.7797 13.3819C18.7892 13.377 18.7987 13.3721 18.8083 13.3671C19.1307 13.1983 19.5781 12.9021 19.8213 12.4322L19.8232 12.4285C20.3211 11.4468 20.203 10.5343 19.7159 9.86135C19.3396 9.34144 18.7635 8.99259 18.1598 8.85697C18.5535 8.38602 18.7991 7.76455 18.7854 7.12808C18.7674 6.29674 18.3078 5.49949 17.3112 5.02448L4.81112 8.9996ZM20.721 16.4055C20.4398 18.5461 18.8906 19.3492 17.4085 19.2422C17.0898 20.6961 15.871 21.9563 13.7288 21.6008C12.9526 21.4748 12.2902 20.8448 11.9179 20.4135C11.9366 20.3874 11.9528 20.3643 11.9663 20.3447C11.9818 20.3223 11.9939 20.3043 12.0025 20.2913L12.0127 20.2756L12.0159 20.2708L12.0169 20.2691L12.0174 20.2685L12.0175 20.2682C12.0176 20.2681 12.0177 20.268 11.596 19.9992C11.1789 20.275 11.179 20.2751 11.1791 20.2752L11.1793 20.2755L11.1797 20.2761L11.1808 20.2778L11.184 20.2826L11.1945 20.2981C11.2034 20.3109 11.2158 20.3287 11.2316 20.3509L20.721 16.4055ZM20.721 16.4055C20.8218 15.6246 20.4125 14.8079 20.109 14.3264M20.721 16.4055L20.109 14.3264M12.8773 18.9133C12.4811 18.8466 12.1339 18.5706 11.8963 18.3278L12.8773 18.9133ZM12.8773 18.9133C14.6976 19.218 15.432 17.6164 15.1195 16.4289M12.8773 18.9133L15.3016 16.5338C15.2453 16.4991 15.1901 16.4627 15.136 16.4246L15.1195 16.4289M15.1195 16.4289L15.136 16.4246C15.1287 16.4195 15.1214 16.4143 15.1142 16.4092C15.116 16.4157 15.1177 16.4223 15.1195 16.4289ZM15.5648 16.1086L15.5525 16.1287C15.571 16.1861 15.5879 16.244 15.6032 16.3024L18.3186 13.5804C18.4822 13.8783 18.6461 14.2903 18.596 14.6867C18.3538 16.5149 16.6038 16.7571 15.5648 16.1086ZM15.5648 16.1086L15.5524 16.1285C15.5487 16.1169 15.5449 16.1054 15.541 16.0939C15.5489 16.0988 15.5568 16.1037 15.5648 16.1086ZM8.68978 15.0071L8.70008 15.014C8.69685 15.0114 8.6934 15.0091 8.68978 15.0071ZM8.68978 15.0071L8.68867 15.009L8.68853 15.0089C8.68895 15.0083 8.68936 15.0077 8.68978 15.0071ZM16.7324 4.65976L16.7326 4.65969L17.3112 5.02446C16.9545 4.85446 16.5646 4.83045 16.2408 4.85396L16.732 4.65992L16.7322 4.65987L16.7324 4.65976ZM16.0496 4.17459L16.0203 4.87776C15.9935 4.88155 15.9676 4.88555 15.9425 4.88968C15.9318 4.89145 15.9211 4.89326 15.9105 4.8951C15.9089 4.88499 15.9072 4.87481 15.9055 4.86457C15.845 4.50474 15.701 3.98859 15.3272 3.60922L15.3267 3.60876C14.5528 2.82554 13.6494 2.65394 12.859 2.908C12.251 3.10344 11.7419 3.54027 11.4259 4.06845C11.0979 3.55163 10.584 3.12715 9.97598 2.94346C9.18047 2.70314 8.28206 2.89306 7.52297 3.69354C7.15808 4.07556 7.02451 4.59308 6.97071 4.95137C6.96923 4.96124 6.9678 4.97105 6.96642 4.98079C6.95642 4.97924 6.94634 4.97771 6.93619 4.97622C6.91023 4.97242 6.88337 4.96877 6.85569 4.96536L6.81392 4.27462L6.81391 4.27449L6.8139 4.2742L6.81388 4.274L6.81387 4.27376L6.81384 4.27313L6.81338 4.26332C6.81297 4.25382 6.8124 4.23852 6.81191 4.21803C6.81092 4.17701 6.81027 4.11544 6.81187 4.03802C6.81508 3.88248 6.82732 3.66681 6.86302 3.42751C6.93716 2.93052 7.10053 2.41456 7.41197 2.08548C8.07666 1.38575 8.7575 1.12714 9.36599 1.11854C9.98459 1.10978 10.5846 1.35891 11.073 1.774L11.4049 2.05602L11.7298 1.76601C12.2124 1.33521 12.8109 1.06908 13.4324 1.0628C14.0434 1.05662 14.7315 1.30061 15.4115 1.99051C15.7285 2.31354 15.9014 2.82761 15.9847 3.32505C16.0249 3.5645 16.0411 3.78076 16.0472 3.93687C16.0503 4.01456 16.0507 4.07641 16.0505 4.11765C16.0504 4.13824 16.0501 4.15362 16.0499 4.16319L16.0496 4.17308L16.0496 4.17375L16.0496 4.17398L16.0496 4.17418L16.0496 4.17447L16.0496 4.17459ZM5.27465 9.41643L5.27572 9.42891L5.27476 9.41652L5.27465 9.41643ZM11.2418 18.3348C11.0092 18.5829 10.6681 18.8658 10.2757 18.9367C8.46342 19.2726 7.69776 17.6871 7.98656 16.4996L11.2418 18.3348ZM7.55353 16.1917C7.55207 16.1927 7.55061 16.1936 7.54916 16.1946C6.51791 16.8586 4.76791 16.6555 4.49447 14.8274C4.43598 14.4305 4.59197 14.0135 4.74977 13.7114L7.55353 16.1917Z" fill="black" stroke="#E84D88"/>
</svg>
